<svg viewBox="20 19 712 366" width="712" height="366" xmlns="http://www.w3.org/2000/svg">
 <defs>
  <marker orient="auto" overflow="visible" markerUnits="strokeWidth" id="a" stroke-miterlimit="10" viewBox="-1 -6 14 12" markerWidth="14" markerHeight="12" color="#34302c" stroke-linejoin="miter">
   <path d="M12 0 0-4v9z" fill="currentColor" stroke="currentColor"/>
  </marker>
  <marker orient="auto" overflow="visible" markerUnits="strokeWidth" id="b" stroke-miterlimit="10" viewBox="-1 -5 11 10" markerWidth="11" markerHeight="10" color="#34302c" stroke-linejoin="miter">
   <path d="M8 0 0-3v6z" fill="currentColor" stroke="currentColor"/>
  </marker>
 </defs>
 <path d="M28 25h696l2 4v248c0 3-1 4-2 4H28c-1 0-2-1-2-4V29z" fill="#fff" stroke="#34302c" stroke-width="2" stroke-linecap="round" stroke-linejoin="round"/>
 <path d="M36 63h656" fill="none" stroke="#34302c" stroke-width="2" stroke-linecap="round" stroke-linejoin="round" marker-end="url(#a)"/>
 <circle cy="63" cx="82" r="23" fill="#6cb33e" stroke="#34302c" stroke-width="2" stroke-linecap="round" stroke-linejoin="round"/>
 <circle cy="64" cx="221" r="23" fill="#e6ba31" stroke="#34302c" stroke-width="2" stroke-linecap="round" stroke-linejoin="round"/>
 <circle cy="63" cx="419" r="23" fill="#45b8de" stroke="#34302c" stroke-width="2" stroke-linecap="round" stroke-linejoin="round"/>
 <path d="M652 39h1l2 2v44l-2 2h-1l-2-2V41z" fill="#34302c"/>
 <path d="M82 86v110" fill="none" stroke="#34302c" stroke-width="2" stroke-linecap="round" stroke-linejoin="round" stroke-dasharray="2,6" marker-end="url(#b)"/>
 <path d="m221 87 1 109" fill="none" stroke="#34302c" stroke-width="2" stroke-linecap="round" stroke-linejoin="round" stroke-dasharray="2,6" marker-end="url(#b)"/>
 <path d="m419 87 1 109" fill="none" stroke="#34302c" stroke-width="2" stroke-linecap="round" stroke-linejoin="round" stroke-dasharray="2, 6" marker-end="url(#b)"/>
 <path d="M652 87v110" fill="none" stroke="#34302c" stroke-width="2" stroke-linecap="round" stroke-linejoin="round" stroke-dasharray="2,6" marker-end="url(#b)"/>
 <path d="M35.87 138.13h337.7" fill="none" stroke="#34302c" stroke-width="2" stroke-linecap="round" stroke-linejoin="round" marker-end="url(#a)"/>
 <circle cy="138" cx="152" r="23" fill="#ff5a01"/>
 <circle cy="138" cx="152" r="23" fill="none" stroke="#34302c" stroke-width="2" stroke-linecap="round" stroke-linejoin="round"/>
 <circle cy="138" cx="311" r="23" fill="#e739ce" stroke="#34302c" stroke-width="2" stroke-linecap="round" stroke-linejoin="round"/>
 <path d="M352 114h1l2 2v44l-2 2h-1l-2-2v-44z" fill="#34302c"/>
 <path d="M352 162v34" fill="none" stroke="#34302c" stroke-width="2" stroke-linecap="round" stroke-linejoin="round" stroke-dasharray="2, 6" marker-end="url(#b)"/>
 <path d="M311 162v34" fill="none" stroke="#34302c" stroke-width="2" stroke-linecap="round" stroke-linejoin="round" stroke-dasharray="2,6" marker-end="url(#b)"/>
 <path d="M152 162v34" fill="none" stroke="#34302c" stroke-width="2" stroke-linecap="round" stroke-linejoin="round" stroke-dasharray="2,6" marker-end="url(#b)"/>
 <path d="M27 355h672" fill="none" stroke="#34302c" stroke-width="2" stroke-linecap="round" stroke-linejoin="round" marker-end="url(#a)"/>
 <circle cy="355" cx="150" r="23" fill="#6cb33e" stroke="#34302c" stroke-width="2" stroke-linecap="round" stroke-linejoin="round"/>
 <circle cy="356" cx="222" r="23" fill="#e6ba31" stroke="#34302c" stroke-width="2" stroke-linecap="round" stroke-linejoin="round"/>
 <circle cy="355" cx="518" r="23" fill="#45b8de" stroke="#34302c" stroke-width="2" stroke-linecap="round" stroke-linejoin="round"/>
 <path d="M652 331c2 0 2 1 2 2v44c0 1 0 2-2 2l-2-2v-44z" fill="#34302c"/>
 <path d="M150 283v28" fill="none" stroke="#34302c" stroke-width="2" stroke-linecap="round" stroke-linejoin="round" stroke-dasharray="2,6" marker-end="url(#b)"/>
 <path d="M222 283v29" fill="none" stroke="#34302c" stroke-width="2" stroke-linecap="round" stroke-linejoin="round" stroke-dasharray="2,6" marker-end="url(#b)"/>
 <path d="M518 283v28" fill="none" stroke="#34302c" stroke-width="2" stroke-linecap="round" stroke-linejoin="round" stroke-dasharray="2, 6" marker-end="url(#b)"/>
 <path d="M652 283v28" fill="none" stroke="#34302c" stroke-width="2" stroke-linecap="round" stroke-linejoin="round" stroke-dasharray="2,6" marker-end="url(#b)"/>
 <circle cy="355" cx="420" r="23" fill="#ff5a01" stroke="#34302c" stroke-width="2" stroke-linecap="round" stroke-linejoin="round"/>
 <circle cy="355" cx="470" r="23" fill="#e739ce" stroke="#34302c" stroke-width="2" stroke-linecap="round" stroke-linejoin="round"/>
 <path d="M470 283v28" fill="none" stroke="#34302c" stroke-width="2" stroke-linecap="round" stroke-linejoin="round" stroke-dasharray="2, 6" marker-end="url(#b)"/>
 <path d="M420 283v28" fill="none" stroke="#34302c" stroke-width="2" stroke-linecap="round" stroke-linejoin="round" stroke-dasharray="2, 6" marker-end="url(#b)"/>
 <text y="344" x="131" fill="#fff"><tspan font-size="16" font-weight="700" x="145" y="360" font-family="Tahoma,'Nimbus Sans L'">1</tspan></text>
 <text y="344" x="402" fill="#fff"><tspan font-size="16" font-weight="700" x="416" y="360" font-family="Tahoma, 'Nimbus Sans L'">3</tspan></text>
 <text y="344" x="499" fill="#fff"><tspan font-size="16" font-weight="700" x="513" y="360" font-family="Tahoma, 'Nimbus Sans L'">5</tspan></text>
 <text y="345" x="203" fill="#fff"><tspan font-size="16" font-weight="700" x="217" y="361" font-family="Tahoma,'Nimbus Sans L'">2</tspan></text>
 <text y="344" x="451" fill="#fff"><tspan font-size="16" font-weight="700" x="465" y="360" font-family="Tahoma, 'Nimbus Sans L'">4</tspan></text>
 <path d="M36 221h655" fill="none" stroke="#34302c" stroke-width="2" stroke-linecap="round" stroke-linejoin="round"/>
 <text x="63" y="52" fill="#fff"><tspan y="68" x="77" font-weight="700" font-size="16" font-family="Tahoma,'Nimbus Sans L'">1</tspan></text>
 <text x="133" y="128" fill="#fff"><tspan y="144" x="147" font-weight="700" font-size="16" font-family="Tahoma,'Nimbus Sans L'">3</tspan></text>
 <text x="400" y="52" fill="#fff"><tspan y="68" x="414" font-weight="700" font-size="16" font-family="Tahoma, 'Nimbus Sans L'">5</tspan></text>
 <text x="203" y="53" fill="#fff"><tspan y="69" x="217" font-weight="700" font-size="16" font-family="Tahoma,'Nimbus Sans L'">2</tspan></text>
 <text x="292" y="127" fill="#fff"><tspan y="143" x="306" font-weight="700" font-size="16" font-family="Tahoma,'Nimbus Sans L'">4</tspan></text>
 <circle cx="619" cy="63" r="23" fill="#ff5a01" stroke="#34302c" stroke-width="2" stroke-linecap="round" stroke-linejoin="round"/>
 <text y="52" x="600" fill="#fff"><tspan font-size="16" font-weight="700" x="614" y="68" font-family="Tahoma, 'Nimbus Sans L'">0</tspan></text>
 <circle cx="620" cy="355" r="23" fill="#ff5a01" stroke="#34302c" stroke-width="2" stroke-linecap="round" stroke-linejoin="round"/>
 <path d="M620 283v28" fill="none" stroke="#34302c" stroke-width="2" stroke-linecap="round" stroke-linejoin="round" stroke-dasharray="2, 6" marker-end="url(#b)"/>
 <text x="601" y="344" fill="#fff"><tspan y="360" x="615" font-weight="700" font-size="16" font-family="Tahoma, 'Nimbus Sans L'">0</tspan></text>
 <path d="m619 87 1 109" fill="none" stroke="#34302c" stroke-width="2" stroke-linecap="round" stroke-linejoin="round" stroke-dasharray="2, 6" marker-end="url(#b)"/>
 <text x="8.38" y="236" fill="#34302c"><tspan font-size="24" font-weight="700" x="259.38" y="258" font-family="Tahoma, 'Nimbus Sans L'">mergeComparing</tspan></text>
</svg>
